# Blender v2.93.2 OBJ File: 'various_meshes.blend'
# www.blender.org
mtllib wings.mtl
o Wings_Plane.008
v 0.845467 0.016912 1.452452
v 1.196005 -0.040336 -1.417625
v 6.974204 1.145288 0.414153
v 6.974204 1.145288 -0.742923
v 6.729531 0.449012 0.849585
v 6.645008 0.397504 0.876243
v 6.645008 0.397504 -0.876243
v 6.729531 0.449012 -0.848650
v 0.652519 0.133380 0.358026
v 6.974204 1.145288 0.051492
v 6.729531 0.464152 0.203967
v 6.645008 0.412643 0.210367
v 1.555508 0.082233 1.487646
v 1.888824 0.027798 -1.475360
v 1.372038 0.195000 0.358103
v 1.861747 1.512080 -4.797355
v 1.861747 1.512080 -5.570723
v 1.931028 1.539687 -5.024040
v -0.845467 0.016912 1.452452
v -1.196005 -0.040336 -1.417625
v -6.974204 1.145288 0.414153
v -6.974204 1.145288 -0.742923
v -6.729531 0.449012 0.849585
v -6.645008 0.397504 0.876243
v -6.645008 0.397504 -0.876243
v -6.729531 0.449012 -0.848650
v -0.652519 0.133380 0.358026
v -6.974204 1.145288 0.051492
v -6.729531 0.464152 0.203967
v -6.645008 0.412643 0.210367
v -1.555508 0.082233 1.487646
v -1.888824 0.027798 -1.475360
v -1.372038 0.195000 0.358103
v 0.000000 0.770202 -4.463995
v -1.861747 1.512080 -4.797355
v 0.000000 0.770202 -5.904082
v -1.861747 1.512080 -5.570723
v 0.000000 0.770202 -4.876231
v -1.931028 1.539687 -5.024040
v 0.848188 -0.012755 1.448934
v 1.198876 -0.069974 -1.413982
v 7.002452 1.135189 0.414002
v 7.002474 1.135248 -0.742842
v 6.750689 0.427750 0.849126
v 6.652755 0.368566 0.874652
v 6.652914 0.368600 -0.874819
v 6.751877 0.428998 -0.848394
v 0.655331 0.103513 0.357925
v 7.002464 1.135222 0.051474
v 6.752840 0.445266 0.203891
v 6.653843 0.383975 0.210289
v 1.557501 0.052436 1.484801
v 1.890986 -0.001995 -1.472581
v 1.374287 0.165086 0.358119
v 1.872852 1.484211 -4.797355
v 1.872852 1.484211 -5.570723
v 1.942133 1.511818 -5.024040
v -0.848188 -0.012755 1.448934
v -1.198876 -0.069974 -1.413982
v -7.002452 1.135189 0.414002
v -7.002474 1.135248 -0.742842
v -6.750689 0.427750 0.849126
v -6.652755 0.368566 0.874652
v -6.652914 0.368600 -0.874819
v -6.751877 0.428998 -0.848394
v -0.655331 0.103513 0.357925
v -7.002464 1.135222 0.051474
v -6.752840 0.445266 0.203891
v -6.653843 0.383975 0.210289
v -1.557501 0.052436 1.484801
v -1.890986 -0.001995 -1.472581
v -1.374287 0.165086 0.358119
v 0.000000 0.740202 -4.463995
v -1.872852 1.484211 -4.797355
v 0.000000 0.740202 -5.904082
v -1.872852 1.484211 -5.570723
v 0.000000 0.740202 -4.876231
v -1.942133 1.511818 -5.024040
vt 0.100665 0.930196
vt 0.100665 0.908168
vt 0.101133 0.915801
vt 0.101133 0.934500
vt 0.100665 0.966142
vt 0.100114 0.966142
vt 0.100114 0.930196
vt 0.050170 0.930115
vt 0.054700 0.966142
vt 0.051778 0.908168
vt 0.100114 0.908168
vt 0.101133 0.966142
vt 0.044993 0.908168
vt 0.043159 0.930103
vt 0.048324 0.966142
vt 0.043159 0.924764
vt 0.101133 0.924764
vt 0.099053 0.966142
vt 0.043159 0.966142
vt 0.043159 0.908168
vt 0.099053 0.908168
vt 0.100665 0.930196
vt 0.101133 0.934500
vt 0.101133 0.915801
vt 0.100665 0.908168
vt 0.100114 0.930196
vt 0.100114 0.966142
vt 0.100665 0.966142
vt 0.050170 0.930115
vt 0.054700 0.966142
vt 0.051778 0.908168
vt 0.100114 0.908168
vt 0.101133 0.966142
vt 0.044993 0.908168
vt 0.043159 0.930103
vt 0.048324 0.966142
vt 0.099053 0.966142
vt 0.101133 0.924764
vt 0.099053 0.908168
vt 0.100665 0.930196
vt 0.101133 0.934500
vt 0.101133 0.915801
vt 0.100665 0.908168
vt 0.100114 0.930196
vt 0.100114 0.966142
vt 0.100665 0.966142
vt 0.050170 0.930115
vt 0.054700 0.966142
vt 0.051778 0.908168
vt 0.100114 0.908168
vt 0.101133 0.966142
vt 0.044993 0.908168
vt 0.043159 0.930103
vt 0.048324 0.966142
vt 0.043159 0.924764
vt 0.043159 0.966142
vt 0.099053 0.966142
vt 0.101133 0.924764
vt 0.043159 0.908168
vt 0.099053 0.908168
vt 0.100665 0.930196
vt 0.100665 0.908168
vt 0.101133 0.915801
vt 0.101133 0.934500
vt 0.100665 0.966142
vt 0.100114 0.966142
vt 0.100114 0.930196
vt 0.050170 0.930115
vt 0.054700 0.966142
vt 0.051778 0.908168
vt 0.100114 0.908168
vt 0.101133 0.966142
vt 0.044993 0.908168
vt 0.043159 0.930103
vt 0.048324 0.966142
vt 0.101133 0.924764
vt 0.099053 0.966142
vt 0.099053 0.908168
vn -0.9416 0.3367 0.0051
vn -0.5192 0.8545 -0.0121
vn -0.0551 0.9959 -0.0719
vn -0.0457 0.9961 0.0756
vn -0.5175 0.8555 0.0198
vn -0.9423 0.3347 -0.0027
vn -0.0907 0.9889 0.1173
vn -0.0957 0.9880 -0.1214
vn -0.3702 0.9290 0.0000
vn 0.9416 0.3367 0.0051
vn 0.5192 0.8545 -0.0121
vn 0.0551 0.9959 -0.0719
vn 0.0457 0.9961 0.0756
vn 0.5175 0.8555 0.0198
vn 0.9423 0.3347 -0.0027
vn 0.0907 0.9889 0.1173
vn 0.0957 0.9880 -0.1214
vn 0.3702 0.9290 -0.0000
vn 0.9407 -0.3392 -0.0039
vn 0.5228 -0.8524 0.0122
vn 0.0552 -0.9959 0.0721
vn 0.0458 -0.9961 -0.0759
vn 0.5194 -0.8543 -0.0202
vn 0.9414 -0.3372 0.0025
vn 0.0907 -0.9889 -0.1175
vn 0.0957 -0.9880 0.1216
vn 0.3692 -0.9293 0.0000
vn 0.3692 -0.9294 -0.0001
vn -0.9407 -0.3392 -0.0039
vn -0.5228 -0.8524 0.0122
vn -0.0552 -0.9959 0.0721
vn -0.0458 -0.9961 -0.0759
vn -0.5194 -0.8543 -0.0202
vn -0.9414 -0.3372 0.0025
vn -0.0907 -0.9889 -0.1175
vn -0.0957 -0.9880 0.1216
vn -0.3692 -0.9293 0.0000
vn -0.3692 -0.9294 -0.0001
vn -0.9815 -0.1011 0.1625
vn 0.3351 0.9422 0.0000
vn 0.2236 0.0891 0.9706
vn 0.2220 0.1040 -0.9695
vn 0.1222 -0.0546 0.9910
vn -0.0721 -0.1132 -0.9910
vn 0.0786 0.1213 -0.9895
vn 0.2840 0.4308 0.8566
vn -0.9535 -0.1078 -0.2816
vn 0.3361 0.9418 0.0000
vn -0.0397 -0.1094 0.9932
vn 0.1284 -0.0489 -0.9905
vn 0.1635 0.0314 0.9860
vn 0.9204 0.3668 -0.1352
vn 0.1635 0.0314 -0.9860
vn 0.8824 0.3516 0.3125
vn 0.9815 -0.1011 0.1625
vn -0.3351 0.9422 0.0000
vn -0.2236 0.0891 0.9706
vn -0.2220 0.1040 -0.9695
vn -0.1222 -0.0546 0.9910
vn 0.0721 -0.1132 -0.9910
vn -0.0786 0.1213 -0.9895
vn -0.2840 0.4308 0.8566
vn 0.9535 -0.1078 -0.2816
vn -0.3361 0.9418 0.0000
vn 0.0397 -0.1094 0.9932
vn -0.1284 -0.0489 -0.9905
vn -0.1635 0.0314 0.9860
vn -0.9204 0.3668 -0.1352
vn -0.1635 0.0314 -0.9860
vn -0.8824 0.3516 0.3125
usemtl None
s off
f 11/1/1 5/2/1 3/3/1 10/4/1
f 11/1/2 8/5/2 7/6/2 12/7/2
f 15/8/3 12/7/3 7/6/3 14/9/3
f 13/10/4 6/11/4 12/7/4 15/8/4
f 5/2/5 11/1/5 12/7/5 6/11/5
f 8/5/6 11/1/6 10/4/6 4/12/6
f 1/13/7 13/10/7 15/8/7 9/14/7
f 9/14/8 15/8/8 14/9/8 2/15/8
f 38/16/9 18/17/9 17/18/9 36/19/9
f 34/20/9 16/21/9 18/17/9 38/16/9
f 29/22/10 28/23/10 21/24/10 23/25/10
f 29/22/11 30/26/11 25/27/11 26/28/11
f 33/29/12 32/30/12 25/27/12 30/26/12
f 31/31/13 33/29/13 30/26/13 24/32/13
f 23/25/14 24/32/14 30/26/14 29/22/14
f 26/28/15 22/33/15 28/23/15 29/22/15
f 19/34/16 27/35/16 33/29/16 31/31/16
f 27/35/17 20/36/17 32/30/17 33/29/17
f 38/16/18 36/19/18 37/37/18 39/38/18
f 34/20/18 38/16/18 39/38/18 35/39/18
f 50/40/19 49/41/19 42/42/19 44/43/19
f 50/40/20 51/44/20 46/45/20 47/46/20
f 54/47/21 53/48/21 46/45/21 51/44/21
f 52/49/22 54/47/22 51/44/22 45/50/22
f 44/43/23 45/50/23 51/44/23 50/40/23
f 47/46/24 43/51/24 49/41/24 50/40/24
f 40/52/25 48/53/25 54/47/25 52/49/25
f 48/53/26 41/54/26 53/48/26 54/47/26
f 77/55/27 75/56/27 56/57/27 57/58/27
f 73/59/28 77/55/28 57/58/28 55/60/28
f 68/61/29 62/62/29 60/63/29 67/64/29
f 68/61/30 65/65/30 64/66/30 69/67/30
f 72/68/31 69/67/31 64/66/31 71/69/31
f 70/70/32 63/71/32 69/67/32 72/68/32
f 62/62/33 68/61/33 69/67/33 63/71/33
f 65/65/34 68/61/34 67/64/34 61/72/34
f 58/73/35 70/70/35 72/68/35 66/74/35
f 66/74/36 72/68/36 71/69/36 59/75/36
f 77/55/37 78/76/37 76/77/37 75/56/37
f 73/59/38 74/78/38 78/76/38 77/55/38
f 1/13/39 9/14/39 48/53/39 40/52/39
f 4/12/40 10/4/40 49/41/40 43/51/40
f 5/2/41 6/11/41 45/50/41 44/43/41
f 7/6/42 8/5/42 47/46/42 46/45/42
f 6/11/43 13/10/43 52/49/43 45/50/43
f 2/15/44 14/9/44 53/48/44 41/54/44
f 8/5/45 4/12/45 43/51/45 47/46/45
f 3/3/46 5/2/46 44/43/46 42/42/46
f 9/14/47 2/15/47 41/54/47 48/53/47
f 10/4/48 3/3/48 42/42/48 49/41/48
f 13/10/49 1/13/49 40/52/49 52/49/49
f 14/9/50 7/6/50 46/45/50 53/48/50
f 16/21/51 34/20/51 73/59/51 55/60/51
f 17/18/52 18/17/52 57/58/52 56/57/52
f 36/19/53 17/18/53 56/57/53 75/56/53
f 18/17/54 16/21/54 55/60/54 57/58/54
f 27/35/55 19/34/55 58/73/55 66/74/55
f 28/23/56 22/33/56 61/72/56 67/64/56
f 24/32/57 23/25/57 62/62/57 63/71/57
f 26/28/58 25/27/58 64/66/58 65/65/58
f 31/31/59 24/32/59 63/71/59 70/70/59
f 32/30/60 20/36/60 59/75/60 71/69/60
f 22/33/61 26/28/61 65/65/61 61/72/61
f 23/25/62 21/24/62 60/63/62 62/62/62
f 20/36/63 27/35/63 66/74/63 59/75/63
f 21/24/64 28/23/64 67/64/64 60/63/64
f 19/34/65 31/31/65 70/70/65 58/73/65
f 25/27/66 32/30/66 71/69/66 64/66/66
f 34/20/67 35/39/67 74/78/67 73/59/67
f 39/38/68 37/37/68 76/77/68 78/76/68
f 37/37/69 36/19/69 75/56/69 76/77/69
f 35/39/70 39/38/70 78/76/70 74/78/70
